<?xml version="1.0" encoding="UTF-8"?>
<svg id="Layer_1" data-name="Layer 1" xmlns="http://www.w3.org/2000/svg" viewBox="0 0 197.64 172.31">
  <defs>
    <style>
      .cls-1 {
        fill: #fff;
      }
    </style>
  </defs>
  <g>
    <path class="cls-1" d="M131.35,42.83c2.21-.52,4.19-1.33,5.95-2.42-3.9.55-7.56,1.47-11.04,2.79,1.68.14,3.4.03,5.1-.37Z"/>
    <path class="cls-1" d="M111.66,39.75c-2.2-2.66-3.71-5.85-4.36-9.36-.82-4.46.14-8.96,2.71-12.7s6.44-6.24,10.89-7.06c3.59-.66,7.22.11,10.22,2.18,3,2.07,5.02,5.18,5.69,8.77.39,2.08.16,4.18-.6,6.1,2.86-.71,5.85-1.24,8.92-1.58.14-.02.29-.03.43-.04.19-3.02-.22-6.21-1.27-9.36-.35-1.05.22-2.19,1.27-2.54,1.06-.35,2.19.22,2.54,1.27,1.15,3.45,1.63,6.96,1.49,10.32,1.42-.07,2.74-.11,4-.11.76,0,1.56.02,2.46.05V9.25C152.43,5.64,150.4,3.61,146.79,0h-37.57c-3.61,3.61-5.64,5.64-9.25,9.25v37.57l1.68,1.68s.02-.02.03-.03c3.69-3.56,6.87-6.34,9.98-8.73Z"/>
    <path class="cls-1" d="M146.23,39.8h-.24s-.25,0-.25,0c-.55,0-1.08.03-1.62.04-2.98,3.39-6.99,5.75-11.86,6.89-1.57.37-3.15.55-4.72.55-2.48,0-4.92-.46-7.24-1.35-.43.23-.86.45-1.28.7-3.56,2.06-7,4.57-11.11,8.13l1.3,1.3h37.57l9.25-9.25v-6.03c-.13-.03-.25-.06-.38-.08-3.05-.59-6.22-.89-9.43-.89Z"/>
    <path class="cls-1" d="M117.35,27.21c-.37-1.98.06-3.98,1.2-5.64,1.14-1.65,2.85-2.76,4.82-3.11,3.53-.64,5.94,1.53,6.5,4,.51,2.26-.54,4.29-2.49,4.82-1.07.29-2.17-.34-2.46-1.41-.26-.95.21-1.92,1.07-2.33,0-.19-.09-.49-.31-.75-.33-.38-.87-.51-1.59-.38-.91.17-1.71.68-2.24,1.45-.53.77-.73,1.71-.56,2.63.25,1.33.99,2.48,2.11,3.25,1.11.77,2.46,1.05,3.79.81.2-.04.4-.09.6-.14.47-.19.93-.37,1.4-.55,1.01-.53,1.88-1.29,2.54-2.25,1.07-1.56,1.47-3.43,1.13-5.29-.97-5.23-6.01-8.7-11.23-7.73-3.4.63-6.35,2.54-8.31,5.39-1.96,2.85-2.69,6.29-2.07,9.69.54,2.91,1.82,5.53,3.69,7.71.09-.06.18-.13.27-.19,2.13-1.46,4.23-2.73,6.37-3.88-.15-.09-.29-.17-.43-.27-2-1.37-3.34-3.44-3.78-5.83Z"/>
    <path class="cls-1" d="M87.81,73.35s-.08.06-.12.09c.08.56-.11,1.14-.56,1.55-.52.48-1.25.58-1.86.33-.13.1-.25.2-.38.29-3.35,2.49-6.73,4.59-10.2,6.35,4.49-.9,9.29.47,12.56,4.04.67.73.62,1.85-.11,2.52-.72.66-1.85.62-2.52-.11-3.69-4.03-10.03-4.24-14.14-.48l-1.23,1.19c-2.67,2.44-6.02,3.65-9.34,3.65-3.56,0-7.09-1.4-9.69-4.14-.13.01-.27.03-.4.04-1.96.14-3.85.21-5.76.21-1.08,0-2.22-.04-3.48-.11v17.44c3.61,3.61,5.64,5.64,9.25,9.25h37.57c3.61-3.61,5.64-5.64,9.25-9.25v-37.57l-1.66-1.66s-.02.02-.04.03c-2.55,2.43-4.89,4.5-7.14,6.33ZM87.13,100.72c-.72.66-1.85.62-2.52-.11-3.69-4.03-10.03-4.25-14.14-.48l-1.23,1.19c-2.67,2.44-6.02,3.65-9.34,3.65-3.64,0-7.25-1.45-9.87-4.32-.67-.73-.62-1.85.11-2.52.72-.66,1.85-.62,2.52.11,3.69,4.03,10.03,4.25,14.14.48l1.23-1.19c5.59-5.12,14.2-4.81,19.21.67.67.73.62,1.85-.11,2.52Z"/>
    <path class="cls-1" d="M66.8,86.53l1.23-1.19c.34-.31.69-.6,1.05-.87-4.38,1.69-8.94,2.88-13.79,3.6,3.62,1.92,8.26,1.44,11.51-1.54Z"/>
    <path class="cls-1" d="M49.83,59.39l-9.25,9.25v4.87c.14.03.28.07.43.1,2.85.62,5.82.96,8.84,1.05-.46-.72-.35-1.68.3-2.27.72-.66,1.85-.62,2.52.11.8.87,1.73,1.56,2.73,2.07,4.15-.24,8.02-.84,11.67-1.85l.96-.93c2.86-2.62,6.49-3.79,10.04-3.6.67-.38,1.35-.77,2.03-1.19,2.75-1.71,5.48-3.74,8.57-6.35-.4-.4-.82-.82-1.27-1.27h-37.57Z"/>
    <path class="cls-1" d="M195.5,57.26c0-15.75-17.48-28.66-39.45-29.56-.82-.03-1.63-.06-2.46-.06-1.42,0-2.8.05-4.15.12-1.4.07-2.76.18-4.09.33-3.74.41-7.22,1.09-10.46,1.99-3.97,1.11-7.59,2.55-10.94,4.24-2.7,1.36-5.23,2.88-7.61,4.51-1.14.78-2.24,1.58-3.32,2.4-3.58,2.74-6.85,5.7-9.94,8.68-1.5,1.44-2.96,2.89-4.39,4.32-1.56-1.55-3.15-3.11-4.78-4.67l1.41-1.41,1.33-1.33V9.25C93.03,5.64,91.01,3.61,87.4,0h-37.57c-3.61,3.61-5.64,5.64-9.25,9.25v18.5C19.09,29.01,2.14,41.76,2.14,57.26s16.95,28.25,38.44,29.5c1.15.07,2.31.11,3.48.11,1.94,0,3.8-.07,5.61-.2,1.13-.08,2.23-.19,3.31-.31,12.98-1.53,22.67-6.36,30.71-12.34.97-.72,1.93-1.47,2.85-2.22,2.47-2.01,4.8-4.11,7.03-6.23,1.76-1.67,3.46-3.36,5.12-5.02,1.55,1.53,3.12,3.09,4.75,4.63l-1.41,1.41-2.05,2.05v37.57c3.61,3.61,5.64,5.64,9.25,9.25h37.57c3.61-3.61,5.64-5.64,9.25-9.25v-19.39c21.97-.9,39.45-13.81,39.45-29.56ZM53.12,45.55l16.79-16.79h-11.02c-.81,0-1.54-.49-1.85-1.24-.31-.75-.14-1.61.43-2.19l18.53-18.53c.78-.78,2.05-.78,2.84,0s.78,2.05,0,2.84l-15.1,15.1h11.02c.81,0,1.54.49,1.85,1.24.31.75.14,1.61-.43,2.19l-20.21,20.21c-.39.39-.9.59-1.42.59s-1.03-.2-1.42-.59c-.78-.78-.78-2.05,0-2.84ZM90.08,62.08c-2.78,2.36-5.7,4.62-8.93,6.63-1.92,1.19-3.94,2.3-6.11,3.28-.98.44-1.99.86-3.03,1.25-5.57,2.09-12.06,3.4-19.96,3.46-.21,0-.42,0-.64,0-3.8,0-7.44-.4-10.83-1.14-12.4-2.7-21.29-9.89-21.29-18.31s8.89-15.62,21.29-18.32v7.87l9.25,9.25h37.57l1.65-1.65,1.42-1.42c1.68,1.44,3.31,2.9,4.92,4.37-1.74,1.58-3.49,3.17-5.3,4.71ZM117.85,104.47c-.38.35-.87.53-1.35.53-.54,0-1.08-.22-1.48-.65-.75-.82-.69-2.08.12-2.83,3.75-3.43,3.95-9.34.45-13.16l-1.14-1.17c-2.46-2.68-3.72-6.09-3.59-9.64.13-3.56,1.63-6.84,4.25-9.23.82-.75,2.08-.69,2.83.12.75.82.69,2.09-.12,2.83-1.81,1.66-2.86,3.94-2.95,6.42-.09,2.49.8,4.89,2.5,6.75l1.14,1.17c5.04,5.5,4.73,13.95-.65,18.87ZM130.06,104.48c-.38.35-.87.53-1.35.53-.54,0-1.08-.22-1.48-.65-.75-.82-.69-2.09.12-2.83,1.81-1.66,2.86-3.94,2.95-6.42.09-2.49-.8-4.89-2.5-6.75l-1.14-1.17c-5.04-5.5-4.73-13.95.65-18.87.82-.75,2.08-.69,2.83.12.75.82.69,2.09-.12,2.83-3.75,3.43-3.95,9.34-.45,13.16l1.14,1.17c2.46,2.68,3.72,6.09,3.59,9.64-.13,3.56-1.64,6.84-4.25,9.23ZM142.27,104.47c-.38.35-.87.53-1.35.53-.54,0-1.08-.22-1.48-.65-.75-.82-.69-2.08.12-2.83,1.81-1.66,2.86-3.94,2.95-6.42.09-2.49-.8-4.89-2.5-6.75l-1.14-1.17c-5.04-5.5-4.73-13.95.65-18.87.82-.75,2.08-.69,2.83.12.75.82.69,2.09-.12,2.83-3.75,3.43-3.95,9.34-.45,13.16l1.14,1.17c2.46,2.68,3.72,6.09,3.59,9.64-.13,3.56-1.63,6.84-4.25,9.23ZM146.79,59.39h-37.57l-.88.88-1.42,1.42c-1.67-1.42-3.29-2.88-4.9-4.34,1.47-1.34,2.96-2.69,4.48-4.01,3.52-3.05,7.25-5.97,11.52-8.44,1.48-.86,3.03-1.66,4.65-2.39,4.99-2.26,10.74-3.87,17.63-4.46,1.73-.15,3.53-.23,5.41-.24.17,0,.33,0,.5,0,3.42,0,6.72.33,9.81.93,12.93,2.52,22.31,9.87,22.31,18.53s-9.38,16.01-22.31,18.52v-7.14l-9.25-9.25Z"/>
  </g>
  <g>
    <path class="cls-1" d="M19.64,127.78c2.72,0,5.04.4,6.95,1.19,1.91.79,3.47,1.84,4.67,3.14,1.2,1.3,2.07,2.79,2.62,4.45s.82,3.4.82,5.18-.27,3.47-.82,5.15c-.55,1.69-1.42,3.18-2.62,4.48-1.2,1.3-2.76,2.35-4.67,3.14-1.91.79-4.23,1.19-6.95,1.19h-10.06v15.62H0v-43.55h19.64ZM17.02,148.28c1.1,0,2.16-.08,3.17-.24,1.02-.16,1.91-.48,2.68-.95.77-.47,1.39-1.13,1.86-1.98.47-.85.7-1.97.7-3.35s-.24-2.5-.7-3.36c-.47-.85-1.09-1.51-1.86-1.98-.77-.47-1.67-.78-2.68-.95-1.02-.16-2.07-.24-3.17-.24h-7.44v13.05h7.44Z"/>
    <path class="cls-1" d="M50.14,171.33l-14.09-43.55h9.82l9.7,30.62h.12l9.82-30.62h9.88l-14.46,43.55h-10.8Z"/>
    <path class="cls-1" d="M94.61,127.78c6.71,0,11.87,1.71,15.49,5.12,3.62,3.42,5.43,8.62,5.43,15.62,0,3.66-.41,6.9-1.22,9.73-.81,2.83-2.07,5.21-3.78,7.14s-3.88,3.41-6.53,4.42c-2.64,1.02-5.77,1.53-9.39,1.53h-14.95v-43.55h14.95ZM95.1,166.45c.65,0,1.46-.05,2.44-.15.98-.1,2.01-.35,3.11-.73,1.1-.39,2.19-.95,3.26-1.68,1.08-.73,2.04-1.73,2.9-2.99.85-1.26,1.56-2.84,2.1-4.73.55-1.89.82-4.18.82-6.86s-.25-4.93-.76-6.98c-.51-2.05-1.34-3.8-2.5-5.25-1.16-1.44-2.65-2.54-4.48-3.29-1.83-.75-4.09-1.13-6.77-1.13h-9.76v33.79h9.64Z"/>
    <path class="cls-1" d="M152.68,127.78v4.88h-24.28v13.85h22.63v4.88h-22.63v15.07h24.46v4.88h-30.26v-43.55h30.07Z"/>
    <path class="cls-1" d="M186.11,170.81c-2.52,1-5.06,1.49-7.62,1.49-3.25,0-6.16-.6-8.72-1.8-2.56-1.2-4.74-2.82-6.53-4.85-1.79-2.03-3.15-4.37-4.09-7.02-.94-2.64-1.4-5.39-1.4-8.23,0-3.17.44-6.19,1.31-9.06.87-2.87,2.17-5.38,3.9-7.53,1.73-2.16,3.88-3.87,6.47-5.16,2.58-1.28,5.6-1.92,9.06-1.92,2.36,0,4.58.27,6.68.82,2.09.55,3.96,1.41,5.61,2.59,1.65,1.18,3.03,2.67,4.15,4.48,1.12,1.81,1.88,4,2.29,6.56h-5.79c-.29-1.67-.81-3.1-1.59-4.3-.77-1.2-1.73-2.19-2.87-2.96s-2.43-1.35-3.87-1.74c-1.44-.39-2.98-.58-4.61-.58-2.64,0-4.91.53-6.8,1.59-1.89,1.06-3.44,2.45-4.64,4.18-1.2,1.73-2.08,3.7-2.65,5.92-.57,2.22-.85,4.48-.85,6.8s.33,4.46.98,6.56c.65,2.1,1.61,3.95,2.87,5.55s2.82,2.89,4.67,3.84c1.85.96,4,1.43,6.44,1.43,2.28,0,4.29-.37,6.04-1.1,1.75-.73,3.22-1.74,4.42-3.02,1.2-1.28,2.1-2.78,2.71-4.51.61-1.73.87-3.59.79-5.58h-13.91v-4.88h19.09v22.94h-3.66l-1.53-5.43c-1.71,2.28-3.82,3.91-6.34,4.91Z"/>
  </g>
</svg>