<?xml version="1.0" encoding="UTF-8"?>
<svg id="Layer_1" data-name="Layer 1" xmlns="http://www.w3.org/2000/svg" viewBox="0 0 554.64 116.31">
  <defs>
    <style>
      .cls-1 {
        fill: #1388c9;
      }

      .cls-2 {
        fill: #f79120;
      }

      .cls-3 {
        fill: #fdb816;
      }

      .cls-4 {
        fill: #fff;
      }

      .cls-5 {
        fill: #495966;
      }

      .cls-6 {
        fill: #9ba1a6;
      }
    </style>
  </defs>
  <g>
    <path class="cls-6" d="M146.79,56.07h-37.57c-3.61-3.61-5.64-5.64-9.25-9.25V9.25c3.61-3.61,5.64-5.64,9.25-9.25h37.57c3.61,3.61,5.64,5.64,9.25,9.25v37.57c-3.61,3.61-5.64,5.64-9.25,9.25Z"/>
    <path class="cls-4" d="M127.54,47.29c-3.95,0-7.83-1.15-11.24-3.38-4.77-3.12-7.97-7.92-9-13.51-.82-4.45.14-8.96,2.71-12.7s6.44-6.24,10.89-7.06c3.59-.66,7.22.11,10.22,2.18,3,2.07,5.02,5.18,5.69,8.77.54,2.91-.09,5.85-1.77,8.29-1.68,2.44-4.2,4.08-7.11,4.61-4.92.91-9.66-2.35-10.57-7.27-.37-1.98.06-3.98,1.21-5.64,1.14-1.65,2.85-2.76,4.82-3.11,3.53-.64,5.94,1.53,6.5,4,.51,2.26-.54,4.29-2.49,4.82-1.07.29-2.17-.34-2.46-1.41-.26-.95.21-1.92,1.07-2.33,0-.19-.09-.49-.31-.75-.33-.38-.87-.51-1.59-.38-.91.17-1.71.68-2.24,1.45-.53.77-.73,1.71-.56,2.63.51,2.74,3.15,4.56,5.9,4.06,3.83-.71,6.37-4.4,5.67-8.23-.47-2.53-1.89-4.73-4.02-6.19-2.12-1.46-4.69-2.01-7.22-1.54-3.4.63-6.35,2.54-8.31,5.39-1.96,2.85-2.69,6.29-2.07,9.69.83,4.5,3.41,8.37,7.25,10.89,3.84,2.51,8.41,3.33,12.85,2.28,5.33-1.24,9.44-4.21,11.88-8.58,2.74-4.9,3.12-11.3,1.04-17.55-.35-1.05.22-2.19,1.27-2.54,1.05-.35,2.19.22,2.54,1.27,2.43,7.32,1.94,14.9-1.35,20.78-3.01,5.38-8.01,9.02-14.47,10.53-1.57.37-3.15.55-4.72.55Z"/>
    <path class="cls-1" d="M87.4,115.46h-37.57c-3.61-3.61-5.64-5.64-9.25-9.25v-37.57c3.61-3.61,5.64-5.64,9.25-9.25h37.57c3.61,3.61,5.64,5.64,9.25,9.25v37.57c-3.61,3.61-5.64,5.64-9.25,9.25Z"/>
    <g>
      <path class="cls-4" d="M59.91,79.24c-3.64,0-7.25-1.45-9.87-4.32-.66-.73-.61-1.85.11-2.52.73-.66,1.85-.61,2.52.11,3.69,4.03,10.03,4.24,14.14.48l1.23-1.19c2.73-2.5,6.19-3.79,9.81-3.66,3.63.13,6.96,1.66,9.4,4.32.66.73.61,1.85-.11,2.52-.73.66-1.85.62-2.52-.11-1.78-1.95-4.23-3.07-6.9-3.17-2.67-.1-5.25.86-7.24,2.69l-1.23,1.19c-2.67,2.44-6.02,3.65-9.34,3.65Z"/>
      <path class="cls-4" d="M59.91,92.77c-3.64,0-7.25-1.45-9.87-4.32-.66-.73-.61-1.85.11-2.52.73-.66,1.85-.61,2.52.11,3.69,4.03,10.03,4.24,14.14.48l1.23-1.19c2.73-2.5,6.19-3.78,9.81-3.66,3.63.13,6.96,1.66,9.4,4.32.66.73.61,1.85-.11,2.52-.73.66-1.85.62-2.52-.11-1.78-1.95-4.23-3.07-6.9-3.17-2.67-.09-5.25.86-7.24,2.69l-1.23,1.19c-2.67,2.44-6.02,3.65-9.34,3.65Z"/>
      <path class="cls-4" d="M59.93,104.98c-.16,0-.33,0-.49,0-3.63-.13-6.96-1.67-9.4-4.32-.66-.73-.61-1.85.11-2.52.73-.67,1.85-.62,2.52.11,1.78,1.95,4.23,3.07,6.9,3.17,2.68.11,5.25-.86,7.24-2.69l1.23-1.19c2.73-2.5,6.19-3.78,9.81-3.66,3.63.13,6.96,1.67,9.4,4.32.66.73.61,1.85-.11,2.52-.73.67-1.85.62-2.52-.11-1.78-1.95-4.23-3.07-6.9-3.17-2.67-.1-5.25.86-7.24,2.69l-1.23,1.19c-2.6,2.38-5.88,3.66-9.32,3.66Z"/>
    </g>
    <path class="cls-5" d="M153.58,27.65c-27.77,0-42.26,13.98-54.9,26.59-12.71-12.62-27.29-26.59-54.62-26.59-23.11,0-41.92,13.29-41.92,29.62s18.8,29.61,41.92,29.61c27.75,0,42.12-13.84,54.64-26.33,12.6,12.49,27.07,26.33,54.89,26.33,23.11,0,41.92-13.28,41.92-29.61s-18.8-29.62-41.92-29.62ZM178.35,57.26c0,10.73-14.41,19.45-32.12,19.45-22.3,0-33.56-9.71-44.21-19.36,10.67-9.74,21.96-19.56,44.21-19.56,17.71,0,32.12,8.73,32.12,19.46ZM95.39,57.37c-10.57,9.64-21.75,19.35-43.98,19.35-17.71,0-32.12-8.73-32.12-19.45s14.41-19.46,32.12-19.46c21.89,0,33.24,9.82,43.98,19.56Z"/>
    <path class="cls-2" d="M146.79,115.46h-37.57c-3.61-3.61-5.64-5.64-9.25-9.25v-37.57c3.61-3.61,5.64-5.64,9.25-9.25h37.57c3.61,3.61,5.64,5.64,9.25,9.25v37.57c-3.61,3.61-5.64,5.64-9.25,9.25Z"/>
    <path class="cls-3" d="M87.4,56.07h-37.57c-3.61-3.61-5.64-5.64-9.25-9.25V9.25c3.61-3.61,5.64-5.64,9.25-9.25h37.57c3.61,3.61,5.64,5.64,9.25,9.25v37.57c-3.61,3.61-5.64,5.64-9.25,9.25Z"/>
    <g>
      <path class="cls-4" d="M116.49,105c-.54,0-1.08-.22-1.48-.65-.75-.82-.69-2.08.12-2.83,1.81-1.66,2.86-3.94,2.95-6.42.09-2.49-.8-4.89-2.5-6.75l-1.14-1.17c-5.04-5.5-4.73-13.95.65-18.87.82-.75,2.09-.69,2.83.12.75.82.69,2.09-.12,2.83-3.75,3.43-3.95,9.34-.45,13.16l1.14,1.17c2.46,2.68,3.72,6.09,3.59,9.64-.13,3.56-1.64,6.84-4.25,9.23-.38.35-.87.53-1.35.53Z"/>
      <path class="cls-4" d="M128.7,105c-.54,0-1.08-.22-1.48-.65-.75-.82-.69-2.08.12-2.83,3.75-3.43,3.95-9.34.45-13.16l-1.14-1.17c-5.04-5.5-4.73-13.95.65-18.87.82-.75,2.09-.69,2.83.12.75.82.69,2.09-.12,2.83-3.75,3.43-3.95,9.34-.45,13.16l1.14,1.17c5.04,5.5,4.73,13.95-.65,18.87-.38.35-.87.53-1.35.53Z"/>
      <path class="cls-4" d="M140.91,105c-.54,0-1.08-.22-1.48-.65-.75-.82-.69-2.08.12-2.83,3.75-3.43,3.95-9.34.45-13.16l-1.14-1.17c-5.04-5.5-4.73-13.95.65-18.87.82-.75,2.09-.69,2.83.12.75.82.69,2.09-.12,2.83-3.75,3.43-3.95,9.34-.45,13.16l1.14,1.17c5.04,5.5,4.73,13.95-.65,18.87-.38.35-.87.53-1.35.53Z"/>
    </g>
    <path class="cls-4" d="M54.54,48.98c-.51,0-1.03-.2-1.42-.59-.78-.78-.78-2.05,0-2.84l16.79-16.79h-11.02c-.81,0-1.54-.49-1.85-1.24-.31-.75-.14-1.61.43-2.19l18.53-18.53c.78-.78,2.05-.78,2.84,0s.78,2.05,0,2.84l-15.1,15.1h11.02c.81,0,1.54.49,1.85,1.24.31.75.14,1.61-.43,2.19l-20.21,20.21c-.39.39-.9.59-1.42.59Z"/>
  </g>
  <g>
    <path class="cls-5" d="M248.8,20.53c4.69,0,8.68.68,11.97,2.05,3.29,1.36,5.97,3.17,8.03,5.41,2.06,2.24,3.57,4.79,4.51,7.66s1.42,5.84,1.42,8.92-.47,5.97-1.42,8.87c-.94,2.91-2.45,5.48-4.51,7.71-2.07,2.24-4.74,4.04-8.03,5.41-3.29,1.36-7.28,2.05-11.97,2.05h-17.32v26.87h-16.48V20.53h33.8ZM244.28,55.8c1.89,0,3.71-.14,5.46-.42,1.75-.28,3.29-.82,4.62-1.63,1.33-.8,2.4-1.94,3.2-3.41.8-1.47,1.21-3.39,1.21-5.77s-.4-4.3-1.21-5.77c-.8-1.47-1.87-2.6-3.2-3.41-1.33-.8-2.87-1.35-4.62-1.63-1.75-.28-3.57-.42-5.46-.42h-12.8v22.46h12.8Z"/>
    <path class="cls-5" d="M301.28,95.47l-24.25-74.94h16.9l16.69,52.69h.21l16.9-52.69h17l-24.88,74.94h-18.58Z"/>
    <path class="cls-6" d="M377.8,20.53c11.55,0,20.43,2.94,26.66,8.82,6.23,5.88,9.34,14.84,9.34,26.87,0,6.3-.7,11.88-2.1,16.74-1.4,4.86-3.57,8.96-6.51,12.28s-6.68,5.86-11.23,7.61c-4.55,1.75-9.94,2.62-16.16,2.62h-25.72V20.53h25.72ZM378.64,87.07c1.12,0,2.52-.09,4.2-.26,1.68-.17,3.46-.59,5.35-1.26,1.89-.66,3.76-1.63,5.62-2.89,1.85-1.26,3.52-2.97,4.99-5.14,1.47-2.17,2.68-4.88,3.62-8.13.94-3.25,1.42-7.19,1.42-11.81s-.44-8.48-1.31-12.02c-.88-3.53-2.31-6.54-4.3-9.03-1.99-2.48-4.57-4.37-7.71-5.67-3.15-1.29-7.03-1.94-11.65-1.94h-16.8v58.15h16.59Z"/>
    <path class="cls-6" d="M477.72,20.53v8.4h-41.78v23.83h38.94v8.4h-38.94v25.93h42.09v8.4h-52.06V20.53h51.75Z"/>
    <path class="cls-6" d="M535.24,94.58c-4.34,1.71-8.71,2.57-13.12,2.57-5.6,0-10.6-1.03-15.01-3.1-4.41-2.06-8.15-4.84-11.23-8.34-3.08-3.5-5.42-7.52-7.03-12.07-1.61-4.55-2.41-9.27-2.41-14.17,0-5.46.75-10.65,2.26-15.59,1.5-4.93,3.74-9.25,6.72-12.96,2.97-3.71,6.68-6.67,11.13-8.87,4.44-2.2,9.64-3.31,15.59-3.31,4.06,0,7.89.47,11.49,1.42,3.6.94,6.82,2.43,9.66,4.46,2.83,2.03,5.21,4.6,7.14,7.71,1.92,3.11,3.23,6.87,3.94,11.28h-9.97c-.49-2.87-1.4-5.34-2.73-7.4-1.33-2.06-2.97-3.76-4.93-5.09s-4.18-2.33-6.66-2.99c-2.49-.66-5.13-1-7.92-1-4.55,0-8.45.91-11.7,2.73-3.25,1.82-5.91,4.22-7.98,7.19-2.07,2.97-3.59,6.37-4.57,10.18-.98,3.81-1.47,7.71-1.47,11.7s.56,7.68,1.68,11.28c1.12,3.61,2.76,6.79,4.93,9.55s4.84,4.97,8.03,6.61c3.18,1.65,6.87,2.47,11.07,2.47,3.92,0,7.38-.63,10.39-1.89,3.01-1.26,5.55-2.99,7.61-5.2,2.06-2.2,3.62-4.79,4.67-7.77,1.05-2.97,1.5-6.18,1.36-9.6h-23.93v-8.4h32.85v39.47h-6.3l-2.62-9.34c-2.94,3.92-6.58,6.73-10.92,8.45Z"/>
  </g>
</svg>