<?xml version="1.0" encoding="UTF-8"?>
<svg id="Layer_1" data-name="Layer 1" xmlns="http://www.w3.org/2000/svg" viewBox="0 0 197.64 172.31">
  <defs>
    <style>
      .cls-1 {
        fill: #1388c9;
      }

      .cls-2 {
        fill: #f79120;
      }

      .cls-3 {
        fill: #fdb816;
      }

      .cls-4 {
        fill: #fff;
      }

      .cls-5 {
        fill: #495966;
      }

      .cls-6 {
        fill: #9ba1a6;
      }
    </style>
  </defs>
  <g>
    <path class="cls-6" d="M146.79,56.07h-37.57c-3.61-3.61-5.64-5.64-9.25-9.25V9.25c3.61-3.61,5.64-5.64,9.25-9.25h37.57c3.61,3.61,5.64,5.64,9.25,9.25v37.57c-3.61,3.61-5.64,5.64-9.25,9.25Z"/>
    <path class="cls-4" d="M127.54,47.29c-3.95,0-7.83-1.15-11.24-3.38-4.77-3.12-7.97-7.92-9-13.51-.82-4.45.14-8.96,2.71-12.7s6.44-6.24,10.89-7.06c3.59-.66,7.22.11,10.22,2.18,3,2.07,5.02,5.18,5.69,8.77.54,2.91-.09,5.85-1.77,8.29-1.68,2.44-4.2,4.08-7.11,4.61-4.92.91-9.66-2.35-10.57-7.27-.37-1.98.06-3.98,1.21-5.64,1.14-1.65,2.85-2.76,4.82-3.11,3.53-.64,5.94,1.53,6.5,4,.51,2.26-.54,4.29-2.49,4.82-1.07.29-2.17-.34-2.46-1.41-.26-.95.21-1.92,1.07-2.33,0-.19-.09-.49-.31-.75-.33-.38-.87-.51-1.59-.38-.91.17-1.71.68-2.24,1.45-.53.77-.73,1.71-.56,2.63.51,2.74,3.15,4.56,5.9,4.06,3.83-.71,6.37-4.4,5.67-8.23-.47-2.53-1.89-4.73-4.02-6.19-2.12-1.46-4.69-2.01-7.22-1.54-3.4.63-6.35,2.54-8.31,5.39-1.96,2.85-2.69,6.29-2.07,9.69.83,4.5,3.41,8.37,7.25,10.89,3.84,2.51,8.41,3.33,12.85,2.28,5.33-1.24,9.44-4.21,11.88-8.58,2.74-4.9,3.12-11.3,1.04-17.55-.35-1.05.22-2.19,1.27-2.54,1.05-.35,2.19.22,2.54,1.27,2.43,7.32,1.94,14.9-1.35,20.78-3.01,5.38-8.01,9.02-14.47,10.53-1.57.37-3.15.55-4.72.55Z"/>
    <path class="cls-1" d="M87.4,115.46h-37.57c-3.61-3.61-5.64-5.64-9.25-9.25v-37.57c3.61-3.61,5.64-5.64,9.25-9.25h37.57c3.61,3.61,5.64,5.64,9.25,9.25v37.57c-3.61,3.61-5.64,5.64-9.25,9.25Z"/>
    <g>
      <path class="cls-4" d="M59.91,79.24c-3.64,0-7.25-1.45-9.87-4.32-.66-.73-.61-1.85.11-2.52.73-.66,1.85-.61,2.52.11,3.69,4.03,10.03,4.24,14.14.48l1.23-1.19c2.73-2.5,6.19-3.79,9.81-3.66,3.63.13,6.96,1.66,9.4,4.32.66.73.61,1.85-.11,2.52-.73.66-1.85.62-2.52-.11-1.78-1.95-4.23-3.07-6.9-3.17-2.67-.1-5.25.86-7.24,2.69l-1.23,1.19c-2.67,2.44-6.02,3.65-9.34,3.65Z"/>
      <path class="cls-4" d="M59.91,92.77c-3.64,0-7.25-1.45-9.87-4.32-.66-.73-.61-1.85.11-2.52.73-.66,1.85-.61,2.52.11,3.69,4.03,10.03,4.24,14.14.48l1.23-1.19c2.73-2.5,6.19-3.78,9.81-3.66,3.63.13,6.96,1.66,9.4,4.32.66.73.61,1.85-.11,2.52-.73.66-1.85.62-2.52-.11-1.78-1.95-4.23-3.07-6.9-3.17-2.67-.09-5.25.86-7.24,2.69l-1.23,1.19c-2.67,2.44-6.02,3.65-9.34,3.65Z"/>
      <path class="cls-4" d="M59.93,104.98c-.16,0-.33,0-.49,0-3.63-.13-6.96-1.67-9.4-4.32-.66-.73-.61-1.85.11-2.52.73-.67,1.85-.62,2.52.11,1.78,1.95,4.23,3.07,6.9,3.17,2.68.11,5.25-.86,7.24-2.69l1.23-1.19c2.73-2.5,6.19-3.78,9.81-3.66,3.63.13,6.96,1.67,9.4,4.32.66.73.61,1.85-.11,2.52-.73.67-1.85.62-2.52-.11-1.78-1.95-4.23-3.07-6.9-3.17-2.67-.1-5.25.86-7.24,2.69l-1.23,1.19c-2.6,2.38-5.88,3.66-9.32,3.66Z"/>
    </g>
    <path class="cls-5" d="M153.58,27.65c-27.77,0-42.26,13.98-54.9,26.59-12.71-12.62-27.29-26.59-54.62-26.59-23.11,0-41.92,13.29-41.92,29.62s18.8,29.61,41.92,29.61c27.75,0,42.12-13.84,54.64-26.33,12.6,12.49,27.07,26.33,54.89,26.33,23.11,0,41.92-13.28,41.92-29.61s-18.8-29.62-41.92-29.62ZM178.35,57.26c0,10.73-14.41,19.45-32.12,19.45-22.3,0-33.56-9.71-44.21-19.36,10.67-9.74,21.96-19.56,44.21-19.56,17.71,0,32.12,8.73,32.12,19.46ZM95.39,57.37c-10.57,9.64-21.75,19.35-43.98,19.35-17.71,0-32.12-8.73-32.12-19.45s14.41-19.46,32.12-19.46c21.89,0,33.24,9.82,43.98,19.56Z"/>
    <path class="cls-2" d="M146.79,115.46h-37.57c-3.61-3.61-5.64-5.64-9.25-9.25v-37.57c3.61-3.61,5.64-5.64,9.25-9.25h37.57c3.61,3.61,5.64,5.64,9.25,9.25v37.57c-3.61,3.61-5.64,5.64-9.25,9.25Z"/>
    <path class="cls-3" d="M87.4,56.07h-37.57c-3.61-3.61-5.64-5.64-9.25-9.25V9.25c3.61-3.61,5.64-5.64,9.25-9.25h37.57c3.61,3.61,5.64,5.64,9.25,9.25v37.57c-3.61,3.61-5.64,5.64-9.25,9.25Z"/>
    <g>
      <path class="cls-4" d="M116.49,105c-.54,0-1.08-.22-1.48-.65-.75-.82-.69-2.08.12-2.83,1.81-1.66,2.86-3.94,2.95-6.42.09-2.49-.8-4.89-2.5-6.75l-1.14-1.17c-5.04-5.5-4.73-13.95.65-18.87.82-.75,2.09-.69,2.83.12.75.82.69,2.09-.12,2.83-3.75,3.43-3.95,9.34-.45,13.16l1.14,1.17c2.46,2.68,3.72,6.09,3.59,9.64-.13,3.56-1.64,6.84-4.25,9.23-.38.35-.87.53-1.35.53Z"/>
      <path class="cls-4" d="M128.7,105c-.54,0-1.08-.22-1.48-.65-.75-.82-.69-2.08.12-2.83,3.75-3.43,3.95-9.34.45-13.16l-1.14-1.17c-5.04-5.5-4.73-13.95.65-18.87.82-.75,2.09-.69,2.83.12.75.82.69,2.09-.12,2.83-3.75,3.43-3.95,9.34-.45,13.16l1.14,1.17c5.04,5.5,4.73,13.95-.65,18.87-.38.35-.87.53-1.35.53Z"/>
      <path class="cls-4" d="M140.91,105c-.54,0-1.08-.22-1.48-.65-.75-.82-.69-2.08.12-2.83,3.75-3.43,3.95-9.34.45-13.16l-1.14-1.17c-5.04-5.5-4.73-13.95.65-18.87.82-.75,2.09-.69,2.83.12.75.82.69,2.09-.12,2.83-3.75,3.43-3.95,9.34-.45,13.16l1.14,1.17c5.04,5.5,4.73,13.95-.65,18.87-.38.35-.87.53-1.35.53Z"/>
    </g>
    <path class="cls-4" d="M54.54,48.98c-.51,0-1.03-.2-1.42-.59-.78-.78-.78-2.05,0-2.84l16.79-16.79h-11.02c-.81,0-1.54-.49-1.85-1.24-.31-.75-.14-1.61.43-2.19l18.53-18.53c.78-.78,2.05-.78,2.84,0s.78,2.05,0,2.84l-15.1,15.1h11.02c.81,0,1.54.49,1.85,1.24.31.75.14,1.61-.43,2.19l-20.21,20.21c-.39.39-.9.59-1.42.59Z"/>
  </g>
  <g>
    <path class="cls-5" d="M19.64,127.78c2.72,0,5.04.4,6.95,1.19,1.91.79,3.47,1.84,4.67,3.14,1.2,1.3,2.07,2.79,2.62,4.45s.82,3.4.82,5.18-.27,3.47-.82,5.15c-.55,1.69-1.42,3.18-2.62,4.48-1.2,1.3-2.76,2.35-4.67,3.14-1.91.79-4.23,1.19-6.95,1.19h-10.06v15.62H0v-43.55h19.64ZM17.02,148.28c1.1,0,2.16-.08,3.17-.24,1.02-.16,1.91-.48,2.68-.95.77-.47,1.39-1.13,1.86-1.98.47-.85.7-1.97.7-3.35s-.24-2.5-.7-3.36c-.47-.85-1.09-1.51-1.86-1.98-.77-.47-1.67-.78-2.68-.95-1.02-.16-2.07-.24-3.17-.24h-7.44v13.05h7.44Z"/>
    <path class="cls-5" d="M50.14,171.33l-14.09-43.55h9.82l9.7,30.62h.12l9.82-30.62h9.88l-14.46,43.55h-10.8Z"/>
    <path class="cls-6" d="M94.61,127.78c6.71,0,11.87,1.71,15.49,5.12,3.62,3.42,5.43,8.62,5.43,15.62,0,3.66-.41,6.9-1.22,9.73-.81,2.83-2.07,5.21-3.78,7.14s-3.88,3.41-6.53,4.42c-2.64,1.02-5.77,1.53-9.39,1.53h-14.95v-43.55h14.95ZM95.1,166.45c.65,0,1.46-.05,2.44-.15.98-.1,2.01-.35,3.11-.73,1.1-.39,2.19-.95,3.26-1.68,1.08-.73,2.04-1.73,2.9-2.99.85-1.26,1.56-2.84,2.1-4.73.55-1.89.82-4.18.82-6.86s-.25-4.93-.76-6.98c-.51-2.05-1.34-3.8-2.5-5.25-1.16-1.44-2.65-2.54-4.48-3.29-1.83-.75-4.09-1.13-6.77-1.13h-9.76v33.79h9.64Z"/>
    <path class="cls-6" d="M152.68,127.78v4.88h-24.28v13.85h22.63v4.88h-22.63v15.07h24.46v4.88h-30.26v-43.55h30.07Z"/>
    <path class="cls-6" d="M186.11,170.81c-2.52,1-5.06,1.49-7.62,1.49-3.25,0-6.16-.6-8.72-1.8-2.56-1.2-4.74-2.82-6.53-4.85-1.79-2.03-3.15-4.37-4.09-7.02-.94-2.64-1.4-5.39-1.4-8.23,0-3.17.44-6.19,1.31-9.06.87-2.87,2.17-5.38,3.9-7.53,1.73-2.16,3.88-3.87,6.47-5.16,2.58-1.28,5.6-1.92,9.06-1.92,2.36,0,4.58.27,6.68.82,2.09.55,3.96,1.41,5.61,2.59,1.65,1.18,3.03,2.67,4.15,4.48,1.12,1.81,1.88,4,2.29,6.56h-5.79c-.29-1.67-.81-3.1-1.59-4.3-.77-1.2-1.73-2.19-2.87-2.96s-2.43-1.35-3.87-1.74c-1.44-.39-2.98-.58-4.61-.58-2.64,0-4.91.53-6.8,1.59-1.89,1.06-3.44,2.45-4.64,4.18-1.2,1.73-2.08,3.7-2.65,5.92-.57,2.22-.85,4.48-.85,6.8s.33,4.46.98,6.56c.65,2.1,1.61,3.95,2.87,5.55s2.82,2.89,4.67,3.84c1.85.96,4,1.43,6.44,1.43,2.28,0,4.29-.37,6.04-1.1,1.75-.73,3.22-1.74,4.42-3.02,1.2-1.28,2.1-2.78,2.71-4.51.61-1.73.87-3.59.79-5.58h-13.91v-4.88h19.09v22.94h-3.66l-1.53-5.43c-1.71,2.28-3.82,3.91-6.34,4.91Z"/>
  </g>
</svg>